PathFileType	4	(X/Y/Z)	OpenSim_Sub06_CSBaseline_Gyro.trc
DataRate	CameraRate	NumFrames	NumMarkers	Units	OrigDataRate	OrigDataStartFrame	OrigNumFrames
100	100	30	8	m	100	2124	8492
Frame#	Time	torso_imu_offset_imu	pelvis_imu_offset_imu	tibia_r_imu_offset_imu	femur_r_imu_offset_imu	tibia_l_imu_offset_imu	femur_l_imu_offset_imu	toes_r_imu_offset_imu	toes_l_imu_offset_imu
				X1	Y1	Z1	X2	Y2	Z2	X3	Y3	Z3	X4	Y4	Z4	X5	Y5	Z5	X6	Y6	Z6	X7	Y7	Z7	X8		Y8	Z8	

2124	21.23000000	1.12722953	0.12666226	0.25921233	0.62288475	-0.22138187	0.08043118	0.46375298	0.19671339	-0.22118343	-0.81555140	-0.96131401	-0.73090099	1.04491678	-0.77659977	2.20510084	0.25539689	1.30737931	-2.80076604	-0.18756492	-0.00560230	0.04544839	-0.24071960	-6.30568533	2.70148539
2125	21.24000000	1.13893632	0.09826800	0.21071953	0.83879873	-0.13786881	0.26134625	-0.01672926	-0.44170698	-0.17144921	-0.64638217	-0.94982128	-0.81889409	1.73880315	-0.75978252	1.68305212	0.41754379	1.09000521	-2.54704363	-0.22645614	-0.00770784	0.03270331	0.22152330	-5.78267136	2.62512737
2126	21.25000000	1.11918525	0.08571852	0.17491020	0.94178255	-0.03647433	0.34235841	0.17513935	-0.73626434	-0.38862302	-0.39883602	-0.59851653	-1.12964008	2.13895712	-0.41682000	1.20745763	0.36808936	0.79735735	-2.23472461	-0.17171336	-0.08008072	-0.05592204	2.03321699	-4.34788748	1.85114438
2127	21.26000000	0.97042946	0.08287240	0.16912037	0.92006809	0.02819668	0.37568020	0.05754285	-0.46903742	-0.43463211	0.04887258	-0.33887360	-1.43422674	2.13540273	0.04883759	0.84304340	0.59645445	0.60177742	-2.03964755	-0.07413411	-0.11828241	-0.15032139	1.60716577	-3.40154626	1.93436087
2128	21.27000000	0.76022582	0.08502418	0.21286991	0.84280044	0.03492833	0.40601076	-0.71503980	-0.23002376	-0.41755797	0.54916677	-0.29061292	-1.37072851	1.78438499	0.20404900	0.52587451	0.83359102	0.52537019	-2.04866350	-0.00088727	-0.16324177	-0.19814135	1.97716299	0.19988998	1.34179493
2129	21.28000000	0.63784883	0.08386397	0.23599973	0.70474547	0.06087220	0.35196173	-1.31594534	-0.15262088	-0.48155550	0.76059627	-0.33178602	-1.14316470	1.34518540	-0.04024220	0.32146735	1.00039694	0.51982631	-2.17057579	0.01711385	-0.22126680	-0.15002329	1.32287069	3.48947522	0.38767843
2130	21.29000000	0.61569571	0.02647057	0.21626450	0.55420476	0.14109236	0.22018443	-1.27669474	-0.18038109	-0.60717474	0.84862278	-0.42698214	-0.98755690	1.24121699	-0.52608031	0.23497639	0.98767668	0.49469821	-2.28792031	-0.03668750	-0.22879507	-0.07826517	0.54299126	3.18808316	0.19859060
2131	21.30000000	0.66317392	-0.03587073	0.19005252	0.45359915	0.21991643	0.04239451	-0.76887442	-0.14039365	-0.65419717	1.01175564	-0.54014464	-0.90029023	1.53815396	-1.01454104	-0.11746078	0.88298050	0.43593994	-2.33020279	-0.03992922	-0.25047730	-0.06069436	-0.71005956	2.12491009	0.11787578
2132	21.31000000	0.69242885	-0.07559553	0.22397202	0.45488158	0.27229870	-0.12865590	0.04264647	-0.05162866	-0.54703630	1.17235355	-0.61146191	-0.91427292	1.65511005	-1.24179379	-0.74631919	0.76395595	0.33371461	-2.28766768	-0.02289698	-0.23316533	-0.08203165	-0.11884134	1.99773397	-0.34810961
2133	21.32000000	0.70318026	-0.05772988	0.32247621	0.54068620	0.30583709	-0.23183624	0.69769770	-0.07903672	-0.40099197	1.10499099	-0.59269577	-1.02177346	1.43329090	-1.15776905	-1.27636406	0.69663264	0.20912416	-2.16089645	0.01124298	-0.19929586	-0.10123993	0.54193303	2.29200649	-0.96399795
2134	21.33000000	0.73791677	-0.02573467	0.39659953	0.63201907	0.31534817	-0.28402898	1.07469085	-0.20453384	-0.35263335	0.73511915	-0.51459622	-1.18038660	1.06200540	-0.88993394	-1.62309138	0.75324007	0.12603126	-1.96688441	0.04059683	-0.17581376	-0.11166379	0.95770630	2.84165753	-1.42444946
2135	21.34000000	0.77810610	-0.00270696	0.36790374	0.65390113	0.31961025	-0.29685288	1.29328297	-0.24616165	-0.34925201	0.23181274	-0.51514511	-1.29158679	0.46803466	-0.56814239	-1.85939106	0.72592659	0.05458364	-1.75913210	0.03769510	-0.15001980	-0.09716824	0.83785787	3.35541071	-1.64071273
2136	21.35000000	0.83305122	-0.00974770	0.27749650	0.63127421	0.29599618	-0.30461620	1.24737287	-0.14435313	-0.32230286	-0.19304880	-0.57010760	-1.24062607	-0.27730531	-0.27530414	-2.11273634	0.68118521	0.03266768	-1.54902695	0.00334621	-0.11434937	-0.06764415	0.65027546	3.74799818	-1.67179531
2137	21.36000000	0.88459023	-0.03410997	0.19549941	0.56500895	0.26898079	-0.30693135	0.97885028	-0.06903388	-0.30543144	-0.39843280	-0.58614552	-1.09517924	-0.83825951	-0.09697233	-2.40809884	0.46743091	0.04183727	-1.40065010	-0.01448358	-0.09610611	-0.04899814	0.56558845	3.89759498	-1.60428984
2138	21.37000000	0.87844238	-0.04117391	0.15430871	0.47413509	0.23982551	-0.33154863	0.53980209	-0.07847080	-0.31776316	-0.44983822	-0.57013327	-0.99941203	-1.07480316	-0.05287863	-2.70592723	0.13560145	0.02665609	-1.28358724	-0.03387781	-0.06733615	-0.02755732	0.79466843	3.79039003	-1.50107175
2139	21.38000000	0.84720468	-0.02900856	0.14856722	0.39498503	0.20330432	-0.34390072	0.09657560	-0.10093776	-0.35994809	-0.43360947	-0.51911297	-0.98264029	-1.11565599	-0.17717571	-3.00656326	-0.20611500	-0.02660885	-1.13625873	-0.05013790	-0.03254806	-0.01535801	1.28683182	3.68446823	-1.42656659
2140	21.39000000	0.79417211	-0.02064585	0.16942399	0.34136330	0.15677277	-0.35461251	-0.23466086	-0.09399290	-0.39839211	-0.43480243	-0.41907881	-1.00737357	-1.00895096	-0.33232321	-3.28361860	-0.48915747	-0.05342117	-1.01594955	-0.02717243	-0.01741387	-0.04160045	1.52024275	3.56427493	-1.40551186
2141	21.40000000	0.74102142	-0.03517413	0.20927867	0.32413047	0.11971936	-0.30914403	-0.45320189	-0.09010976	-0.41642349	-0.37055230	-0.31830725	-0.95997007	-0.94657791	-0.29304209	-3.48229161	-0.74825534	-0.06871289	-0.88779808	-0.04926725	0.01327718	-0.06007265	1.52165520	3.47598575	-1.44917536
2142	21.41000000	0.69666398	-0.07902177	0.24773383	0.29952872	0.11435961	-0.25631477	-0.63691889	-0.08627050	-0.43953412	-0.31996521	-0.19373823	-0.92680501	-1.07285589	-0.09554360	-3.56469607	-0.89038403	-0.06836071	-0.72033042	-0.03200299	0.02993142	-0.09257238	1.36295252	3.43800227	-1.55373356
2143	21.42000000	0.62711863	-0.11280238	0.26011944	0.27963594	0.14387168	-0.17481579	-0.79568374	-0.06653802	-0.47344126	-0.24204004	-0.14819116	-0.95088114	-0.99869160	0.02898122	-3.67361788	-0.96463645	-0.11876556	-0.58503278	-0.01221962	0.02977729	-0.12100092	1.12309537	3.47196343	-1.65275563
2144	21.43000000	0.56261546	-0.11817201	0.25253483	0.21385304	0.21183899	-0.15465186	-0.83807233	-0.06496306	-0.50711624	-0.19245786	-0.17887149	-0.94966147	-0.33422135	0.00922003	-3.86989191	-0.95352844	-0.20926494	-0.46401794	-0.00281339	0.03352324	-0.14907549	0.92521494	3.44577293	-1.70588355
2145	21.44000000	0.50165640	-0.12948565	0.24061709	0.16921500	0.27599877	-0.11599944	-0.69544924	-0.04361175	-0.53312760	-0.13297782	-0.24731437	-0.95264149	0.46569199	-0.08579722	-4.06049935	-0.91042529	-0.31834455	-0.33774368	0.01590883	0.02280682	-0.17767985	0.82727626	3.37883445	-1.72953785
2146	21.45000000	0.43815060	-0.12383304	0.22360216	0.10829130	0.31034580	-0.11289635	-0.39435989	0.03721170	-0.55266685	-0.09526088	-0.27844314	-0.96943960	0.80734374	-0.10149459	-4.22722412	-0.81398564	-0.44362740	-0.20159712	0.03877405	0.00383804	-0.20080618	0.89942542	3.38532384	-1.78155720
2147	21.46000000	0.38588798	-0.11140103	0.22023956	0.06922237	0.31562944	-0.11029678	-0.13890716	0.14337105	-0.57119399	-0.09702672	-0.26965735	-0.95172480	0.74999389	0.04087298	-4.35619305	-0.61832356	-0.53963845	-0.01605093	0.03684597	-0.01986983	-0.21610721	0.97902237	3.57293169	-1.90776216
2148	21.47000000	0.32837383	-0.09977842	0.22600087	0.07464864	0.29594882	-0.09632225	0.08594117	0.15132023	-0.58933616	-0.07197769	-0.26526372	-0.83448787	0.54589614	0.22580089	-4.49765220	-0.31988680	-0.56406308	0.18229258	0.05758453	-0.05892911	-0.22124370	0.84821923	3.82385541	-2.11416469
2149	21.48000000	0.26831918	-0.08716198	0.23932213	0.06949199	0.24952720	-0.10004416	0.26715113	0.14284309	-0.58549906	0.04644618	-0.25319676	-0.83900692	0.24567301	0.25183047	-4.59536894	-0.13000815	-0.54163422	0.29882288	0.08876225	-0.11485199	-0.23916533	0.56530398	3.89644512	-2.34707960
2150	21.49000000	0.23757220	-0.08483937	0.22070945	0.04445799	0.17580064	-0.11473882	0.38178937	0.15026252	-0.60370883	0.21741445	-0.24892377	-0.84352357	-0.12366087	0.11012469	-4.54743272	-0.10188582	-0.48542189	0.42279688	0.08396195	-0.13551620	-0.25352505	0.31363401	3.72544680	-2.56914198
2151	21.50000000	0.20302641	-0.07511636	0.19345381	0.00761901	0.08652573	-0.10271923	0.42028890	0.10642100	-0.65167184	0.40849644	-0.22368913	-0.86026986	-0.46793741	-0.02683588	-4.38725209	0.13187044	-0.36119678	0.56677614	0.09899621	-0.17912925	-0.27536482	0.17434674	3.36681208	-2.74070244
2152	21.51000000	0.18050269	-0.09696657	0.17109368	-0.03400108	0.00806661	-0.07973908	0.34873649	0.08457873	-0.70908486	0.57172825	-0.21139022	-0.82803055	-0.80560784	-0.06136008	-4.13610436	0.39044412	-0.24504113	0.73089269	0.11136128	-0.21221302	-0.30845804	0.00606464	2.87521556	-2.81416870
2153	21.52000000	0.19524260	-0.15510210	0.13780181	-0.11386608	-0.06564413	-0.08856641	0.22501549	0.07217492	-0.76665254	0.62147757	-0.20752626	-0.81394139	-1.13645041	-0.00416515	-3.84106353	0.51670778	-0.24041992	0.87146851	0.11421388	-0.24333922	-0.33103864	-0.10709515	2.31733289	-2.79387807
